<svg width="312" height="27" viewBox="0 0 312 27" fill="none" xmlns="http://www.w3.org/2000/svg">
<path d="M0.28 25.46L3.16 24.38L13.06 0.439999H14.14L24.4 24.92L26.2 25.46V26H21.88C20.632 26 19.612 25.724 18.82 25.172C18.028 24.596 17.44 23.852 17.056 22.94L15.22 18.62H6.616L4.24 24.38L6.94 25.46V26H0.28V25.46ZM6.976 17.72H14.86L10.9 8.252L6.976 17.72ZM27.2688 25.46L29.4288 24.92V1.88L27.2688 1.34V0.799998H36.8088C40.8888 0.799998 43.8288 1.424 45.6288 2.672C47.4288 3.896 48.3288 5.612 48.3288 7.82C48.3288 9.308 47.9328 10.52 47.1408 11.456C46.3488 12.368 45.3288 13.052 44.0808 13.508C42.7608 14.012 41.3568 14.276 39.8688 14.3V14.48C40.7568 14.528 41.5368 14.66 42.2088 14.876C43.8888 15.404 45.0288 16.352 45.6288 17.72L48.8688 24.92L50.6688 25.46V26H45.6288C43.6608 26 42.2208 24.98 41.3088 22.94L37.7088 14.84H35.3688V24.92L37.8888 25.46V26H27.2688V25.46ZM36.8088 13.94C38.4888 13.94 39.8088 13.412 40.7688 12.356C41.7288 11.3 42.2088 9.788 42.2088 7.82C42.2088 5.852 41.7288 4.34 40.7688 3.284C39.8088 2.228 38.4888 1.7 36.8088 1.7H35.3688V13.94H36.8088ZM56.6059 25.46L58.7659 24.92V16.64L51.3859 1.88L49.5859 1.34V0.799998H54.0859C55.3339 0.799998 56.3299 1.064 57.0739 1.592C57.8419 2.12 58.4659 2.876 58.9459 3.86L64.2739 14.48L69.7459 2.42L67.0459 1.34V0.799998H73.8859V1.34L71.0059 2.42L64.7059 16.28V24.92L66.8659 25.46V26H56.6059V25.46ZM69.573 25.46L72.453 24.38L82.353 0.439999H83.433L93.693 24.92L95.493 25.46V26H91.173C89.925 26 88.905 25.724 88.113 25.172C87.321 24.596 86.733 23.852 86.349 22.94L84.513 18.62H75.909L73.533 24.38L76.233 25.46V26H69.573V25.46ZM76.269 17.72H84.153L80.193 8.252L76.269 17.72ZM99.8017 6.92V24.38L102.682 25.46V26H95.8417V25.46L98.7217 24.38V2.06L96.2017 1.34V0.799998H99.9817C101.254 0.799998 102.25 1.028 102.97 1.484C103.69 1.94 104.374 2.552 105.022 3.32L116.542 16.82V2.42L113.662 1.34V0.799998H120.502V1.34L117.622 2.42V26.54H116.542L99.8017 6.92ZM133.3 26V25.46L135.46 24.92V1.88L133.3 1.34V0.799998H143.56V1.34L141.4 1.88V13.04H149.14V1.88L146.98 1.34V0.799998H157.24V1.34L155.08 1.88V24.92L157.24 25.46V26H146.98V25.46L149.14 24.92V13.94H141.4V24.92L143.56 25.46V26H133.3ZM172.347 26.54C169.995 26.54 167.931 26.036 166.155 25.028C164.403 23.996 163.047 22.496 162.087 20.528C161.127 18.56 160.647 16.184 160.647 13.4C160.647 10.616 161.127 8.24 162.087 6.272C163.047 4.304 164.403 2.816 166.155 1.808C167.931 0.775999 169.995 0.259999 172.347 0.259999C174.699 0.259999 176.751 0.775999 178.503 1.808C180.279 2.816 181.647 4.304 182.607 6.272C183.567 8.24 184.047 10.616 184.047 13.4C184.047 16.184 183.567 18.56 182.607 20.528C181.647 22.496 180.279 23.996 178.503 25.028C176.751 26.036 174.699 26.54 172.347 26.54ZM172.347 25.82C173.283 25.82 174.147 25.424 174.939 24.632C175.755 23.84 176.427 22.52 176.955 20.672C177.483 18.824 177.747 16.4 177.747 13.4C177.747 10.4 177.483 7.976 176.955 6.128C176.427 4.28 175.755 2.96 174.939 2.168C174.147 1.376 173.283 0.979998 172.347 0.979998C171.411 0.979998 170.535 1.376 169.719 2.168C168.927 2.96 168.267 4.28 167.739 6.128C167.211 7.976 166.947 10.4 166.947 13.4C166.947 16.4 167.211 18.824 167.739 20.672C168.267 22.52 168.927 23.84 169.719 24.632C170.535 25.424 171.411 25.82 172.347 25.82ZM196.296 26.54C194.592 26.54 192.996 26.156 191.508 25.388C190.836 25.052 190.272 24.656 189.816 24.2C189.48 24.752 189.06 25.244 188.556 25.676C188.124 25.988 187.884 26.156 187.836 26.18H186.936V19.34H188.376C188.736 20.516 189.24 21.572 189.888 22.508C191.352 24.596 193.248 25.64 195.576 25.64C196.944 25.64 198.036 25.232 198.852 24.416C199.668 23.6 200.076 22.508 200.076 21.14C200.076 20.348 199.836 19.64 199.356 19.016C198.9 18.392 198.324 17.84 197.628 17.36C196.932 16.88 195.96 16.28 194.712 15.56C193.128 14.672 191.844 13.868 190.86 13.148C189.876 12.428 189.036 11.528 188.34 10.448C187.644 9.344 187.296 8.048 187.296 6.56C187.296 5.384 187.62 4.328 188.268 3.392C188.94 2.432 189.936 1.676 191.256 1.124C192.576 0.547999 194.196 0.259999 196.116 0.259999C197.508 0.259999 198.9 0.655999 200.292 1.448C200.82 1.736 201.348 2.12 201.876 2.6C202.284 1.976 202.704 1.484 203.136 1.124C203.568 0.811998 203.808 0.643998 203.856 0.619998H204.756V7.46H203.316C203.004 6.308 202.536 5.264 201.912 4.328C201.336 3.416 200.616 2.66 199.752 2.06C198.912 1.46 197.94 1.16 196.836 1.16C195.9 1.16 195.096 1.532 194.424 2.276C193.752 3.02 193.416 3.968 193.416 5.12C193.416 6.008 193.668 6.812 194.172 7.532C194.7 8.228 195.336 8.84 196.08 9.368C196.848 9.896 197.88 10.532 199.176 11.276C200.688 12.14 201.912 12.908 202.848 13.58C203.784 14.252 204.576 15.092 205.224 16.1C205.872 17.084 206.196 18.224 206.196 19.52C206.196 20.816 205.824 22.004 205.08 23.084C204.336 24.14 203.22 24.98 201.732 25.604C200.244 26.228 198.432 26.54 196.296 26.54ZM208.886 25.46L211.046 24.92V1.88L208.886 1.34V0.799998H218.966C222.95 0.799998 225.806 1.46 227.534 2.78C229.262 4.076 230.126 5.996 230.126 8.54C230.126 11.084 229.262 13.016 227.534 14.336C225.806 15.632 222.95 16.28 218.966 16.28H216.986V24.92L219.146 25.46V26H208.886V25.46ZM218.966 15.38C220.478 15.38 221.69 14.804 222.602 13.652C223.538 12.5 224.006 10.796 224.006 8.54C224.006 6.308 223.538 4.616 222.602 3.464C221.69 2.288 220.478 1.7 218.966 1.7H216.986V15.38H218.966ZM233.179 26V25.46L235.339 24.92V1.88L233.179 1.34V0.799998H243.439V1.34L241.279 1.88V24.92L243.439 25.46V26H233.179ZM251.53 25.46L253.69 24.92V1.7H249.55C249.55 3.164 249.154 4.568 248.362 5.912C248.026 6.464 247.642 6.92 247.21 7.28H246.13V0.799998H267.19V7.28H266.11C265.654 6.92 265.258 6.464 264.922 5.912C264.154 4.616 263.77 3.212 263.77 1.7H259.63V24.92L261.79 25.46V26H251.53V25.46ZM265.217 25.46L268.098 24.38L277.998 0.439999H279.078L289.338 24.92L291.138 25.46V26H286.818C285.57 26 284.55 25.724 283.758 25.172C282.966 24.596 282.378 23.852 281.994 22.94L280.158 18.62H271.554L269.178 24.38L271.878 25.46V26H265.217V25.46ZM271.914 17.72H279.798L275.838 8.252L271.914 17.72ZM292.206 25.46L294.366 24.92V1.88L292.206 1.34V0.799998H302.466V1.34L300.306 1.88V25.1H308.046C308.046 23.588 308.43 22.184 309.198 20.888C309.534 20.336 309.93 19.88 310.386 19.52H311.466V26H292.206V25.46Z" fill="#1F2B6C"/>
</svg>
